<svg data-v-423bf9ae="" xmlns="http://www.w3.org/2000/svg" viewBox="0 0 268.4444663324198 60" class="font"><!----><!----><!----><g data-v-423bf9ae="" id="09cead87-f7e2-4697-a488-59ef545f957f" fill="black" transform="matrix(6.349206447601318,0,0,6.349206447601318,0.25397053360939026,0.06349366158246994)"><path d="M0.46 0C0.18 0-0.04 0.22-0.04 0.50L-0.04 8.93C-0.04 9.21 0.18 9.44 0.46 9.44L0.85 9.44C1.12 9.44 1.36 9.21 1.36 8.93L1.36 5.40L2.93 5.40C3.21 5.40 3.43 5.18 3.43 4.90L3.43 4.52C3.43 4.24 3.21 4.02 2.93 4.02L1.36 4.02L1.36 1.39L3.49 1.39C3.77 1.39 3.99 1.16 3.99 0.88L3.99 0.50C3.99 0.22 3.77 0 3.49 0ZM8.92 8.55C8.92 8.27 8.69 8.05 8.41 8.05L6.33 8.05L6.33 0.50C6.33 0.22 6.10 0 5.84 0L5.43 0C5.15 0 4.93 0.22 4.93 0.50L4.93 8.93C4.93 9.21 5.15 9.44 5.43 9.44L8.41 9.44C8.69 9.44 8.92 9.21 8.92 8.93ZM9.72 6.69C9.72 7.80 10.02 8.44 10.46 8.88C10.92 9.32 11.51 9.44 12.01 9.44C12.53 9.44 13.12 9.32 13.58 8.88C14.01 8.44 14.31 7.80 14.31 6.69L14.31 2.73C14.31 0.95 13.55 0 12.01 0C10.49 0 9.72 0.97 9.72 2.73ZM11.12 2.73C11.12 1.82 11.40 1.39 12.01 1.39C12.61 1.39 12.91 1.79 12.91 2.73L12.91 6.69C12.91 7.64 12.60 8.05 12.01 8.05C11.41 8.05 11.12 7.62 11.12 6.69ZM17.37 9.44C19.01 9.44 19.74 8.54 19.74 6.73C19.74 5.88 19.50 5.17 19.14 4.72L19.14 4.72C19.14 4.72 19.74 4.00 19.74 2.70C19.74 0.90 19.01 0 17.37 0L15.99 0C15.71 0 15.48 0.22 15.48 0.50L15.48 8.93C15.48 9.21 15.71 9.44 15.99 9.44ZM17.37 1.39C18.06 1.39 18.34 1.76 18.34 2.70C18.34 3.64 18.06 4.02 17.37 4.02L16.88 4.02L16.88 1.39ZM17.37 5.40C18.06 5.40 18.34 5.78 18.34 6.73C18.34 7.67 18.06 8.05 17.37 8.05L16.88 8.05L16.88 5.40ZM20.80 6.69C20.80 7.80 21.11 8.44 21.55 8.88C22.01 9.32 22.60 9.44 23.10 9.44C23.62 9.44 24.21 9.32 24.67 8.88C25.10 8.44 25.40 7.80 25.40 6.69L25.40 2.73C25.40 0.95 24.64 0 23.10 0C21.57 0 20.80 0.97 20.80 2.73ZM22.20 2.73C22.20 1.82 22.48 1.39 23.10 1.39C23.70 1.39 24.00 1.79 24.00 2.73L24.00 6.69C24.00 7.64 23.69 8.05 23.10 8.05C22.50 8.05 22.20 7.62 22.20 6.69ZM30.30 9.04C30.35 9.25 30.58 9.44 30.79 9.44L31.19 9.44C31.53 9.44 31.75 9.14 31.68 8.82L29.75 0.39C29.71 0.18 29.47 0 29.26 0L28.95 0C28.74 0 28.52 0.18 28.46 0.39L27.19 5.87L26.52 8.83C26.45 9.16 26.67 9.44 27.01 9.44L27.41 9.44C27.62 9.44 27.85 9.25 27.90 9.04L28.39 6.86L29.82 6.86ZM29.11 3.23C29.37 4.42 29.34 4.80 29.50 5.47L28.71 5.47ZM36.75 6.58C36.75 5.85 36.55 5.28 36.15 4.84C36.19 4.80 36.22 4.77 36.26 4.73C36.69 4.30 36.85 3.60 36.85 2.73C36.85 0.85 36.25-0.01 34.52-0.01L32.76-0.01C32.48-0.01 32.26 0.21 32.26 0.49L32.26 8.92C32.26 9.20 32.48 9.42 32.76 9.42L33.15 9.42C33.42 9.42 33.64 9.20 33.64 8.92L33.64 5.49L34.27 5.49C34.96 5.49 35.35 5.88 35.35 6.58L35.35 8.92C35.35 9.20 35.57 9.42 35.85 9.42L36.25 9.42C36.53 9.42 36.75 9.20 36.75 8.92ZM33.64 1.39L34.52 1.39C35.25 1.39 35.46 1.78 35.46 2.73C35.46 3.68 35.06 4.07 34.27 4.07L33.64 4.07ZM39.77 9.44C41.45 9.44 42.24 8.48 42.24 6.66L42.24 2.77C42.24 0.95 41.45 0 39.77 0L38.35 0C38.07 0 37.84 0.22 37.84 0.50L37.84 8.93C37.84 9.21 38.07 9.44 38.35 9.44ZM39.77 1.39C40.52 1.39 40.82 1.83 40.82 2.77L40.82 6.66C40.82 7.60 40.52 8.05 39.77 8.05L39.23 8.05L39.23 1.39Z"></path></g><!----><!----></svg>