<svg data-v-423bf9ae="" xmlns="http://www.w3.org/2000/svg" viewBox="0 0 524.6498155131831 163" class="iconAbove"><!----><!----><!----><g data-v-423bf9ae="" id="94e4c178-6be2-4358-ba21-15d87bf95bc8" fill="white" transform="matrix(5.836575984954834,0,0,5.836575984954834,-5.719857692718506,102.70816802978516)"><path d="M7.80 10.19L5.70 10.19L3.73 6.84L2.90 7.42L2.90 10.19L0.98 10.19L0.98 0.05L2.90 0.05L2.90 5.86L5.54 2.80L7.60 2.80L5.00 5.68L7.80 10.19ZM10.47 10.33L10.47 10.33L10.47 10.33Q9.94 10.33 9.52 10.18L9.52 10.18L9.52 10.18Q9.10 10.04 8.80 9.75L8.80 9.75L8.80 9.75Q8.51 9.47 8.35 9.05L8.35 9.05L8.35 9.05Q8.20 8.63 8.20 8.10L8.20 8.10L8.20 8.10Q8.20 7.44 8.43 7.00L8.43 7.00L8.43 7.00Q8.65 6.55 9.05 6.27L9.05 6.27L9.05 6.27Q9.45 6.00 9.98 5.87L9.98 5.87L9.98 5.87Q10.51 5.74 11.12 5.74L11.12 5.74L12.71 5.71L12.71 5.33L12.71 5.33Q12.71 4.93 12.64 4.66L12.64 4.66L12.64 4.66Q12.56 4.39 12.43 4.22L12.43 4.22L12.43 4.22Q12.29 4.05 12.09 3.98L12.09 3.98L12.09 3.98Q11.89 3.90 11.63 3.90L11.63 3.90L11.63 3.90Q11.39 3.90 11.20 3.95L11.20 3.95L11.20 3.95Q11.01 4.00 10.88 4.12L10.88 4.12L10.88 4.12Q10.74 4.24 10.65 4.44L10.65 4.44L10.65 4.44Q10.57 4.64 10.53 4.95L10.53 4.95L8.53 4.85L8.53 4.85Q8.61 4.37 8.83 3.97L8.83 3.97L8.83 3.97Q9.05 3.57 9.44 3.27L9.44 3.27L9.44 3.27Q9.82 2.98 10.39 2.82L10.39 2.82L10.39 2.82Q10.95 2.66 11.71 2.66L11.71 2.66L11.71 2.66Q12.40 2.66 12.94 2.83L12.94 2.83L12.94 2.83Q13.48 3.00 13.86 3.34L13.86 3.34L13.86 3.34Q14.23 3.68 14.43 4.17L14.43 4.17L14.43 4.17Q14.63 4.66 14.63 5.31L14.63 5.31L14.63 8.00L14.63 8.00Q14.63 8.26 14.65 8.47L14.65 8.47L14.65 8.47Q14.68 8.67 14.74 8.81L14.74 8.81L14.74 8.81Q14.81 8.96 14.93 9.03L14.93 9.03L14.93 9.03Q15.05 9.10 15.24 9.10L15.24 9.10L15.24 9.10Q15.46 9.10 15.66 9.06L15.66 9.06L15.66 10.10L15.66 10.10Q15.49 10.14 15.35 10.17L15.35 10.17L15.35 10.17Q15.22 10.21 15.08 10.23L15.08 10.23L15.08 10.23Q14.94 10.25 14.79 10.26L14.79 10.26L14.79 10.26Q14.64 10.27 14.43 10.27L14.43 10.27L14.43 10.27Q13.71 10.27 13.36 9.92L13.36 9.92L13.36 9.92Q13.02 9.56 12.95 8.87L12.95 8.87L12.91 8.87L12.91 8.87Q12.52 9.56 11.93 9.95L11.93 9.95L11.93 9.95Q11.33 10.33 10.47 10.33ZM12.71 7.14L12.71 6.77L11.72 6.78L11.72 6.78Q11.42 6.79 11.14 6.83L11.14 6.83L11.14 6.83Q10.86 6.87 10.65 6.99L10.65 6.99L10.65 6.99Q10.45 7.11 10.32 7.33L10.32 7.33L10.32 7.33Q10.20 7.56 10.20 7.95L10.20 7.95L10.20 7.95Q10.20 8.48 10.44 8.73L10.44 8.73L10.44 8.73Q10.68 8.99 11.09 8.99L11.09 8.99L11.09 8.99Q11.46 8.99 11.76 8.83L11.76 8.83L11.76 8.83Q12.06 8.67 12.27 8.42L12.27 8.42L12.27 8.42Q12.48 8.16 12.59 7.83L12.59 7.83L12.59 7.83Q12.71 7.49 12.71 7.14L12.71 7.14ZM23.26 10.19L21.34 10.19L21.34 6.04L21.34 6.04Q21.34 5.61 21.27 5.25L21.27 5.25L21.27 5.25Q21.21 4.89 21.05 4.64L21.05 4.64L21.05 4.64Q20.89 4.38 20.64 4.24L20.64 4.24L20.64 4.24Q20.38 4.09 20.02 4.09L20.02 4.09L20.02 4.09Q19.67 4.09 19.39 4.25L19.39 4.25L19.39 4.25Q19.11 4.40 18.90 4.69L18.90 4.69L18.90 4.69Q18.70 4.97 18.58 5.36L18.58 5.36L18.58 5.36Q18.47 5.76 18.47 6.23L18.47 6.23L18.47 10.19L16.55 10.19L16.55 4.45L16.55 4.45Q16.55 4.21 16.55 3.96L16.55 3.96L16.55 3.96Q16.54 3.71 16.53 3.48L16.53 3.48L16.53 3.48Q16.52 3.25 16.52 3.07L16.52 3.07L16.52 3.07Q16.51 2.88 16.50 2.80L16.50 2.80L18.33 2.80L18.33 2.80Q18.34 2.88 18.35 3.06L18.35 3.06L18.35 3.06Q18.37 3.24 18.38 3.46L18.38 3.46L18.38 3.46Q18.40 3.68 18.41 3.90L18.41 3.90L18.41 3.90Q18.42 4.12 18.42 4.27L18.42 4.27L18.44 4.27L18.44 4.27Q18.83 3.42 19.42 3.04L19.42 3.04L19.42 3.04Q20.01 2.65 20.82 2.65L20.82 2.65L20.82 2.65Q21.49 2.65 21.95 2.87L21.95 2.87L21.95 2.87Q22.42 3.09 22.71 3.47L22.71 3.47L22.71 3.47Q23.00 3.86 23.13 4.38L23.13 4.38L23.13 4.38Q23.26 4.89 23.26 5.50L23.26 5.50L23.26 10.19ZM32.10 6.47L32.10 6.47L32.10 6.47Q32.10 7.31 31.93 8.02L31.93 8.02L31.93 8.02Q31.77 8.72 31.42 9.24L31.42 9.24L31.42 9.24Q31.07 9.75 30.53 10.04L30.53 10.04L30.53 10.04Q30.00 10.33 29.26 10.33L29.26 10.33L29.26 10.33Q28.94 10.33 28.61 10.26L28.61 10.26L28.61 10.26Q28.28 10.19 27.99 10.04L27.99 10.04L27.99 10.04Q27.69 9.88 27.45 9.63L27.45 9.63L27.45 9.63Q27.20 9.37 27.02 9.00L27.02 9.00L27.01 9.00L27.01 9.00Q27.01 9.15 27.00 9.33L27.00 9.33L27.00 9.33Q26.99 9.52 26.97 9.69L26.97 9.69L26.97 9.69Q26.96 9.86 26.94 10.00L26.94 10.00L26.94 10.00Q26.93 10.14 26.91 10.19L26.91 10.19L25.05 10.19L25.05 10.19Q25.07 9.95 25.08 9.51L25.08 9.51L25.08 9.51Q25.10 9.07 25.10 8.50L25.10 8.50L25.10 0.05L27.02 0.05L27.02 2.88L27.02 2.88Q27.02 3.10 27.02 3.31L27.02 3.31L27.02 3.31Q27.02 3.51 27.01 3.69L27.01 3.69L27.01 3.69Q27.00 3.90 27.00 4.08L27.00 4.08L27.02 4.08L27.02 4.08Q27.37 3.32 27.98 2.99L27.98 2.99L27.98 2.99Q28.59 2.66 29.39 2.66L29.39 2.66L29.39 2.66Q30.10 2.66 30.61 2.94L30.61 2.94L30.61 2.94Q31.12 3.23 31.46 3.74L31.46 3.74L31.46 3.74Q31.79 4.25 31.94 4.94L31.94 4.94L31.94 4.94Q32.10 5.64 32.10 6.47ZM30.10 6.47L30.10 6.47L30.10 6.47Q30.10 5.21 29.73 4.60L29.73 4.60L29.73 4.60Q29.36 3.99 28.59 3.99L28.59 3.99L28.59 3.99Q28.29 3.99 28.01 4.11L28.01 4.11L28.01 4.11Q27.72 4.22 27.49 4.52L27.49 4.52L27.49 4.52Q27.27 4.81 27.13 5.29L27.13 5.29L27.13 5.29Q27.00 5.78 27.00 6.53L27.00 6.53L27.00 6.53Q27.00 7.25 27.13 7.73L27.13 7.73L27.13 7.73Q27.27 8.21 27.49 8.50L27.49 8.50L27.49 8.50Q27.71 8.78 27.99 8.90L27.99 8.90L27.99 8.90Q28.28 9.02 28.57 9.02L28.57 9.02L28.57 9.02Q29.31 9.02 29.70 8.41L29.70 8.41L29.70 8.41Q30.10 7.81 30.10 6.47ZM35.36 10.33L35.36 10.33L35.36 10.33Q34.83 10.33 34.41 10.18L34.41 10.18L34.41 10.18Q33.99 10.04 33.69 9.75L33.69 9.75L33.69 9.75Q33.40 9.47 33.24 9.05L33.24 9.05L33.24 9.05Q33.09 8.63 33.09 8.10L33.09 8.10L33.09 8.10Q33.09 7.44 33.31 7.00L33.31 7.00L33.31 7.00Q33.54 6.55 33.94 6.27L33.94 6.27L33.94 6.27Q34.34 6.00 34.87 5.87L34.87 5.87L34.87 5.87Q35.40 5.74 36.00 5.74L36.00 5.74L37.60 5.71L37.60 5.33L37.60 5.33Q37.60 4.93 37.53 4.66L37.53 4.66L37.53 4.66Q37.45 4.39 37.32 4.22L37.32 4.22L37.32 4.22Q37.18 4.05 36.98 3.98L36.98 3.98L36.98 3.98Q36.78 3.90 36.52 3.90L36.52 3.90L36.52 3.90Q36.28 3.90 36.09 3.95L36.09 3.95L36.09 3.95Q35.90 4.00 35.77 4.12L35.77 4.12L35.77 4.12Q35.63 4.24 35.54 4.44L35.54 4.44L35.54 4.44Q35.46 4.64 35.42 4.95L35.42 4.95L33.42 4.85L33.42 4.85Q33.50 4.37 33.72 3.97L33.72 3.97L33.72 3.97Q33.94 3.57 34.33 3.27L34.33 3.27L34.33 3.27Q34.71 2.98 35.28 2.82L35.28 2.82L35.28 2.82Q35.84 2.66 36.60 2.66L36.60 2.66L36.60 2.66Q37.29 2.66 37.83 2.83L37.83 2.83L37.83 2.83Q38.37 3.00 38.75 3.34L38.75 3.34L38.75 3.34Q39.12 3.68 39.32 4.17L39.32 4.17L39.32 4.17Q39.52 4.66 39.52 5.31L39.52 5.31L39.52 8.00L39.52 8.00Q39.52 8.26 39.54 8.47L39.54 8.47L39.54 8.47Q39.57 8.67 39.63 8.81L39.63 8.81L39.63 8.81Q39.70 8.96 39.82 9.03L39.82 9.03L39.82 9.03Q39.94 9.10 40.13 9.10L40.13 9.10L40.13 9.10Q40.35 9.10 40.55 9.06L40.55 9.06L40.55 10.10L40.55 10.10Q40.38 10.14 40.24 10.17L40.24 10.17L40.24 10.17Q40.11 10.21 39.97 10.23L39.97 10.23L39.97 10.23Q39.83 10.25 39.68 10.26L39.68 10.26L39.68 10.26Q39.53 10.27 39.32 10.27L39.32 10.27L39.32 10.27Q38.60 10.27 38.25 9.92L38.25 9.92L38.25 9.92Q37.91 9.56 37.84 8.87L37.84 8.87L37.80 8.87L37.80 8.87Q37.41 9.56 36.81 9.95L36.81 9.95L36.81 9.95Q36.22 10.33 35.36 10.33ZM37.60 7.14L37.60 6.77L36.61 6.78L36.61 6.78Q36.31 6.79 36.03 6.83L36.03 6.83L36.03 6.83Q35.75 6.87 35.54 6.99L35.54 6.99L35.54 6.99Q35.33 7.11 35.21 7.33L35.21 7.33L35.21 7.33Q35.09 7.56 35.09 7.95L35.09 7.95L35.09 7.95Q35.09 8.48 35.33 8.73L35.33 8.73L35.33 8.73Q35.57 8.99 35.98 8.99L35.98 8.99L35.98 8.99Q36.35 8.99 36.65 8.83L36.65 8.83L36.65 8.83Q36.95 8.67 37.16 8.42L37.16 8.42L37.16 8.42Q37.37 8.16 37.48 7.83L37.48 7.83L37.48 7.83Q37.60 7.49 37.60 7.14L37.60 7.14ZM48.15 10.19L46.23 10.19L46.23 6.04L46.23 6.04Q46.23 5.61 46.16 5.25L46.16 5.25L46.16 5.25Q46.09 4.89 45.94 4.64L45.94 4.64L45.94 4.64Q45.78 4.38 45.53 4.24L45.53 4.24L45.53 4.24Q45.27 4.09 44.91 4.09L44.91 4.09L44.91 4.09Q44.56 4.09 44.28 4.25L44.28 4.25L44.28 4.25Q44.00 4.40 43.79 4.69L43.79 4.69L43.79 4.69Q43.59 4.97 43.47 5.36L43.47 5.36L43.47 5.36Q43.36 5.76 43.36 6.23L43.36 6.23L43.36 10.19L41.44 10.19L41.44 4.45L41.44 4.45Q41.44 4.21 41.44 3.96L41.44 3.96L41.44 3.96Q41.43 3.71 41.42 3.48L41.42 3.48L41.42 3.48Q41.41 3.25 41.41 3.07L41.41 3.07L41.41 3.07Q41.40 2.88 41.38 2.80L41.38 2.80L43.22 2.80L43.22 2.80Q43.23 2.88 43.24 3.06L43.24 3.06L43.24 3.06Q43.26 3.24 43.27 3.46L43.27 3.46L43.27 3.46Q43.29 3.68 43.30 3.90L43.30 3.90L43.30 3.90Q43.31 4.12 43.31 4.27L43.31 4.27L43.33 4.27L43.33 4.27Q43.72 3.42 44.31 3.04L44.31 3.04L44.31 3.04Q44.90 2.65 45.71 2.65L45.71 2.65L45.71 2.65Q46.38 2.65 46.84 2.87L46.84 2.87L46.84 2.87Q47.30 3.09 47.60 3.47L47.60 3.47L47.60 3.47Q47.89 3.86 48.02 4.38L48.02 4.38L48.02 4.38Q48.15 4.89 48.15 5.50L48.15 5.50L48.15 10.19ZM60.88 6.47L60.88 6.47L60.88 6.47Q60.88 7.31 60.71 8.02L60.71 8.02L60.71 8.02Q60.55 8.72 60.20 9.24L60.20 9.24L60.20 9.24Q59.85 9.75 59.31 10.04L59.31 10.04L59.31 10.04Q58.78 10.33 58.04 10.33L58.04 10.33L58.04 10.33Q57.72 10.33 57.39 10.26L57.39 10.26L57.39 10.26Q57.06 10.19 56.77 10.04L56.77 10.04L56.77 10.04Q56.47 9.88 56.23 9.63L56.23 9.63L56.23 9.63Q55.98 9.37 55.80 9.00L55.80 9.00L55.79 9.00L55.79 9.00Q55.79 9.15 55.78 9.33L55.78 9.33L55.78 9.33Q55.77 9.52 55.75 9.69L55.75 9.69L55.75 9.69Q55.74 9.86 55.72 10.00L55.72 10.00L55.72 10.00Q55.71 10.14 55.69 10.19L55.69 10.19L53.83 10.19L53.83 10.19Q53.85 9.95 53.86 9.51L53.86 9.51L53.86 9.51Q53.88 9.07 53.88 8.50L53.88 8.50L53.88 0.05L55.80 0.05L55.80 2.88L55.80 2.88Q55.80 3.10 55.80 3.31L55.80 3.31L55.80 3.31Q55.79 3.51 55.79 3.69L55.79 3.69L55.79 3.69Q55.78 3.90 55.77 4.08L55.77 4.08L55.80 4.08L55.80 4.08Q56.15 3.32 56.76 2.99L56.76 2.99L56.76 2.99Q57.37 2.66 58.17 2.66L58.17 2.66L58.17 2.66Q58.88 2.66 59.39 2.94L59.39 2.94L59.39 2.94Q59.90 3.23 60.23 3.74L60.23 3.74L60.23 3.74Q60.57 4.25 60.72 4.94L60.72 4.94L60.72 4.94Q60.88 5.64 60.88 6.47ZM58.88 6.47L58.88 6.47L58.88 6.47Q58.88 5.21 58.51 4.60L58.51 4.60L58.51 4.60Q58.14 3.99 57.37 3.99L57.37 3.99L57.37 3.99Q57.07 3.99 56.79 4.11L56.79 4.11L56.79 4.11Q56.50 4.22 56.27 4.52L56.27 4.52L56.27 4.52Q56.05 4.81 55.91 5.29L55.91 5.29L55.91 5.29Q55.77 5.78 55.77 6.53L55.77 6.53L55.77 6.53Q55.77 7.25 55.91 7.73L55.91 7.73L55.91 7.73Q56.05 8.21 56.27 8.50L56.27 8.50L56.27 8.50Q56.49 8.78 56.77 8.90L56.77 8.90L56.77 8.90Q57.06 9.02 57.35 9.02L57.35 9.02L57.35 9.02Q58.08 9.02 58.48 8.41L58.48 8.41L58.48 8.41Q58.88 7.81 58.88 6.47ZM69.46 6.49L69.46 6.49L69.46 6.49Q69.46 7.33 69.22 8.04L69.22 8.04L69.22 8.04Q68.99 8.74 68.52 9.25L68.52 9.25L68.52 9.25Q68.04 9.76 67.34 10.05L67.34 10.05L67.34 10.05Q66.64 10.33 65.70 10.33L65.70 10.33L65.70 10.33Q64.80 10.33 64.11 10.05L64.11 10.05L64.11 10.05Q63.42 9.77 62.95 9.26L62.95 9.26L62.95 9.26Q62.48 8.76 62.24 8.05L62.24 8.05L62.24 8.05Q62.00 7.34 62.00 6.49L62.00 6.49L62.00 6.49Q62.00 5.66 62.23 4.96L62.23 4.96L62.23 4.96Q62.46 4.26 62.92 3.75L62.92 3.75L62.92 3.75Q63.39 3.23 64.09 2.95L64.09 2.95L64.09 2.95Q64.80 2.66 65.74 2.66L65.74 2.66L65.74 2.66Q66.74 2.66 67.44 2.95L67.44 2.95L67.44 2.95Q68.15 3.23 68.60 3.74L68.60 3.74L68.60 3.74Q69.04 4.25 69.25 4.95L69.25 4.95L69.25 4.95Q69.46 5.65 69.46 6.49ZM67.45 6.49L67.45 6.49L67.45 6.49Q67.45 5.17 67.02 4.57L67.02 4.57L67.02 4.57Q66.59 3.98 65.77 3.98L65.77 3.98L65.77 3.98Q64.92 3.98 64.47 4.58L64.47 4.58L64.47 4.58Q64.02 5.18 64.02 6.49L64.02 6.49L64.02 6.49Q64.02 7.15 64.14 7.63L64.14 7.63L64.14 7.63Q64.26 8.11 64.48 8.42L64.48 8.42L64.48 8.42Q64.70 8.72 65.00 8.87L65.00 8.87L65.00 8.87Q65.31 9.02 65.68 9.02L65.68 9.02L65.68 9.02Q66.10 9.02 66.44 8.87L66.44 8.87L66.44 8.87Q66.77 8.72 66.99 8.42L66.99 8.42L66.99 8.42Q67.22 8.11 67.33 7.63L67.33 7.63L67.33 7.63Q67.45 7.15 67.45 6.49ZM72.69 10.33L72.69 10.33L72.69 10.33Q72.16 10.33 71.74 10.18L71.74 10.18L71.74 10.18Q71.32 10.04 71.03 9.75L71.03 9.75L71.03 9.75Q70.73 9.47 70.57 9.05L70.57 9.05L70.57 9.05Q70.42 8.63 70.42 8.10L70.42 8.10L70.42 8.10Q70.42 7.44 70.65 7.00L70.65 7.00L70.65 7.00Q70.88 6.55 71.27 6.27L71.27 6.27L71.27 6.27Q71.67 6.00 72.20 5.87L72.20 5.87L72.20 5.87Q72.73 5.74 73.34 5.74L73.34 5.74L74.93 5.71L74.93 5.33L74.93 5.33Q74.93 4.93 74.86 4.66L74.86 4.66L74.86 4.66Q74.79 4.39 74.65 4.22L74.65 4.22L74.65 4.22Q74.51 4.05 74.31 3.98L74.31 3.98L74.31 3.98Q74.11 3.90 73.85 3.90L73.85 3.90L73.85 3.90Q73.61 3.90 73.42 3.95L73.42 3.95L73.42 3.95Q73.23 4.00 73.10 4.12L73.10 4.12L73.10 4.12Q72.96 4.24 72.87 4.44L72.87 4.44L72.87 4.44Q72.79 4.64 72.75 4.95L72.75 4.95L70.75 4.85L70.75 4.85Q70.83 4.37 71.05 3.97L71.05 3.97L71.05 3.97Q71.27 3.57 71.66 3.27L71.66 3.27L71.66 3.27Q72.04 2.98 72.61 2.82L72.61 2.82L72.61 2.82Q73.17 2.66 73.93 2.66L73.93 2.66L73.93 2.66Q74.62 2.66 75.16 2.83L75.16 2.83L75.16 2.83Q75.70 3.00 76.08 3.34L76.08 3.34L76.08 3.34Q76.45 3.68 76.65 4.17L76.65 4.17L76.65 4.17Q76.85 4.66 76.85 5.31L76.85 5.31L76.85 8.00L76.85 8.00Q76.85 8.26 76.87 8.47L76.87 8.47L76.87 8.47Q76.90 8.67 76.96 8.81L76.96 8.81L76.96 8.81Q77.03 8.96 77.15 9.03L77.15 9.03L77.15 9.03Q77.27 9.10 77.46 9.10L77.46 9.10L77.46 9.10Q77.68 9.10 77.88 9.06L77.88 9.06L77.88 10.10L77.88 10.10Q77.71 10.14 77.57 10.17L77.57 10.17L77.57 10.17Q77.44 10.21 77.30 10.23L77.30 10.23L77.30 10.23Q77.16 10.25 77.01 10.26L77.01 10.26L77.01 10.26Q76.86 10.27 76.65 10.27L76.65 10.27L76.65 10.27Q75.93 10.27 75.58 9.92L75.58 9.92L75.58 9.92Q75.24 9.56 75.17 8.87L75.17 8.87L75.13 8.87L75.13 8.87Q74.74 9.56 74.15 9.95L74.15 9.95L74.15 9.95Q73.55 10.33 72.69 10.33ZM74.93 7.14L74.93 6.77L73.94 6.78L73.94 6.78Q73.64 6.79 73.36 6.83L73.36 6.83L73.36 6.83Q73.08 6.87 72.87 6.99L72.87 6.99L72.87 6.99Q72.67 7.11 72.54 7.33L72.54 7.33L72.54 7.33Q72.42 7.56 72.42 7.95L72.42 7.95L72.42 7.95Q72.42 8.48 72.66 8.73L72.66 8.73L72.66 8.73Q72.91 8.99 73.31 8.99L73.31 8.99L73.31 8.99Q73.68 8.99 73.98 8.83L73.98 8.83L73.98 8.83Q74.28 8.67 74.49 8.42L74.49 8.42L74.49 8.42Q74.70 8.16 74.81 7.83L74.81 7.83L74.81 7.83Q74.93 7.49 74.93 7.14L74.93 7.14ZM80.69 10.19L78.77 10.19L78.77 4.53L78.77 4.53Q78.77 4.29 78.77 4.03L78.77 4.03L78.77 4.03Q78.76 3.76 78.75 3.52L78.75 3.52L78.75 3.52Q78.74 3.27 78.74 3.08L78.74 3.08L78.74 3.08Q78.73 2.88 78.72 2.80L78.72 2.80L80.55 2.80L80.55 2.80Q80.56 2.88 80.58 3.08L80.58 3.08L80.58 3.08Q80.59 3.28 80.60 3.52L80.60 3.52L80.60 3.52Q80.62 3.76 80.63 4.00L80.63 4.00L80.63 4.00Q80.64 4.23 80.64 4.38L80.64 4.38L80.66 4.38L80.66 4.38Q80.81 3.97 80.95 3.65L80.95 3.65L80.95 3.65Q81.09 3.34 81.29 3.11L81.29 3.11L81.29 3.11Q81.48 2.89 81.76 2.77L81.76 2.77L81.76 2.77Q82.03 2.65 82.43 2.65L82.43 2.65L82.43 2.65Q82.61 2.65 82.77 2.68L82.77 2.68L82.77 2.68Q82.94 2.71 83.03 2.75L83.03 2.75L83.03 4.36L83.03 4.36Q82.84 4.32 82.66 4.29L82.66 4.29L82.66 4.29Q82.47 4.26 82.21 4.26L82.21 4.26L82.21 4.26Q81.49 4.26 81.09 4.84L81.09 4.84L81.09 4.84Q80.69 5.42 80.69 6.56L80.69 6.56L80.69 10.19ZM90.87 10.19L89.01 10.19L89.01 10.19Q89.00 10.14 88.98 10.00L88.98 10.00L88.98 10.00Q88.96 9.86 88.95 9.68L88.95 9.68L88.95 9.68Q88.93 9.50 88.92 9.32L88.92 9.32L88.92 9.32Q88.91 9.13 88.91 8.99L88.91 8.99L88.88 8.99L88.88 8.99Q88.55 9.71 87.95 10.02L87.95 10.02L87.95 10.02Q87.35 10.33 86.52 10.33L86.52 10.33L86.52 10.33Q85.82 10.33 85.31 10.04L85.31 10.04L85.31 10.04Q84.80 9.75 84.47 9.24L84.47 9.24L84.47 9.24Q84.14 8.73 83.98 8.03L83.98 8.03L83.98 8.03Q83.82 7.33 83.82 6.50L83.82 6.50L83.82 6.50Q83.82 5.66 83.98 4.96L83.98 4.96L83.98 4.96Q84.15 4.25 84.50 3.74L84.50 3.74L84.50 3.74Q84.85 3.23 85.38 2.95L85.38 2.95L85.38 2.95Q85.92 2.66 86.66 2.66L86.66 2.66L86.66 2.66Q87.02 2.66 87.36 2.73L87.36 2.73L87.36 2.73Q87.69 2.81 87.98 2.97L87.98 2.97L87.98 2.97Q88.27 3.12 88.50 3.37L88.50 3.37L88.50 3.37Q88.73 3.62 88.89 3.96L88.89 3.96L88.91 3.96L88.91 3.96Q88.91 3.90 88.90 3.76L88.90 3.76L88.90 3.76Q88.90 3.63 88.90 3.46L88.90 3.46L88.90 3.46Q88.90 3.29 88.90 3.10L88.90 3.10L88.90 3.10Q88.89 2.92 88.89 2.75L88.89 2.75L88.89 0.05L90.82 0.05L90.82 8.58L90.82 8.58Q90.82 9.12 90.84 9.54L90.84 9.54L90.84 9.54Q90.86 9.96 90.87 10.19L90.87 10.19ZM88.92 6.45L88.92 6.45L88.92 6.45Q88.92 5.72 88.79 5.24L88.79 5.24L88.79 5.24Q88.65 4.76 88.43 4.47L88.43 4.47L88.43 4.47Q88.20 4.19 87.92 4.08L87.92 4.08L87.92 4.08Q87.64 3.96 87.34 3.96L87.34 3.96L87.34 3.96Q86.97 3.96 86.69 4.11L86.69 4.11L86.69 4.11Q86.41 4.25 86.21 4.56L86.21 4.56L86.21 4.56Q86.02 4.87 85.92 5.35L85.92 5.35L85.92 5.35Q85.82 5.82 85.82 6.50L85.82 6.50L85.82 6.50Q85.82 9.02 87.33 9.02L87.33 9.02L87.33 9.02Q87.62 9.02 87.90 8.89L87.90 8.89L87.90 8.89Q88.19 8.77 88.42 8.48L88.42 8.48L88.42 8.48Q88.64 8.18 88.78 7.69L88.78 7.69L88.78 7.69Q88.92 7.19 88.92 6.45Z"></path></g><!----><g data-v-423bf9ae="" id="0d101f13-381c-4355-b47c-1d1160f4390e" transform="matrix(2.994410514831543,0,0,2.994410514831543,215.0894317626953,-1.938568115234375)" stroke="none" fill="white"><path d="M17.572 23.933l4.106 7.095L32 13.189h-8.981V7.582L11.51.972 0 7.582v13.222l11.51 6.611 6.062-3.482zm10.96-8.744l-6.855 11.846-6.855-11.846h13.71z"></path></g><!----></svg>